<?xml version="1.0" encoding="utf-8"?>
<!-- Generator: Adobe Illustrator 23.0.6, SVG Export Plug-In . SVG Version: 6.00 Build 0)  -->
<svg version="1.1" id="Layer_1" xmlns="http://www.w3.org/2000/svg" xmlns:xlink="http://www.w3.org/1999/xlink" x="0px" y="0px"
	 viewBox="0 0 100 100" style="enable-background:new 0 0 100 100;" xml:space="preserve">
<style type="text/css">
	.st0{fill:#A7C739;}
	.st1{fill:#5CC2E7;}
	.st2{fill:#1E243A;}
</style>
<g>
	<g>
		<g>
			<path class="st0" d="M71.51,67.84c-3.84,0-6.95,3.11-6.95,6.95s3.11,6.95,6.95,6.95c3.84,0,6.95-3.11,6.95-6.95
				S75.35,67.84,71.51,67.84z M71.51,77.72c-1.62,0-2.93-1.31-2.93-2.93c0-1.62,1.31-2.93,2.93-2.93c1.62,0,2.93,1.31,2.93,2.93
				C74.44,76.41,73.13,77.72,71.51,77.72z"/>
		</g>
	</g>
</g>
<g>
	<g>
		<g>
			<path class="st1" d="M71.51,59c-8.72,0-15.79,7.07-15.79,15.79s7.07,15.79,15.79,15.79c8.72,0,15.79-7.07,15.79-15.79
				S80.23,59,71.51,59z M71.51,86.04c-6.22,0-11.25-5.04-11.25-11.25s5.04-11.25,11.25-11.25c6.22,0,11.25,5.04,11.25,11.25
				S77.73,86.04,71.51,86.04z"/>
		</g>
	</g>
</g>
<g>
	<g>
		<g>
			<path class="st1" d="M38.82,34.59L27.14,22.91l-11.21,11.2l-4.45-4.43L0.49,40.64v0.01v5.87c0,0.92,0.81,1.75,1.73,1.75h52.43
				c0.92,0,1.63-0.83,1.63-1.75V34.1l-8.42-8.58L38.82,34.59z"/>
		</g>
	</g>
</g>
<g>
	<g>
		<g>
			<path class="st0" d="M54.58,8.49H2.26c-0.94,0-1.71,0.73-1.71,1.67v3.39h55.73v-3.39C56.29,9.22,55.52,8.49,54.58,8.49z
				 M4.19,11.69c-0.42,0-0.76-0.34-0.76-0.76c0-0.42,0.34-0.76,0.76-0.76s0.76,0.34,0.76,0.76C4.95,11.35,4.61,11.69,4.19,11.69z
				 M7.04,11.69c-0.42,0-0.76-0.34-0.76-0.76c0-0.42,0.34-0.76,0.76-0.76c0.42,0,0.76,0.34,0.76,0.76
				C7.81,11.35,7.47,11.69,7.04,11.69z M9.9,11.69c-0.42,0-0.76-0.34-0.76-0.76c0-0.42,0.34-0.76,0.76-0.76s0.76,0.34,0.76,0.76
				C10.67,11.35,10.32,11.69,9.9,11.69z"/>
		</g>
	</g>
</g>
<g>
	<g>
		<g>
			<g>
				<path class="st2" d="M0.52,37.36c-0.26,0-0.47-0.21-0.47-0.47V10.1c0-1.17,0.98-2.12,2.18-2.12h52.43c1.2,0,2.14,0.93,2.14,2.12
					v20.71c0,0.26-0.21,0.47-0.47,0.47c-0.26,0-0.47-0.21-0.47-0.47V10.1c0-0.66-0.52-1.17-1.19-1.17H2.23C1.55,8.93,1,9.45,1,10.1
					v26.79C1,37.15,0.79,37.36,0.52,37.36z"/>
			</g>
		</g>
	</g>
	<g>
		<g>
			<g>
				<path class="st2" d="M56.35,13.99H0.56c-0.26,0-0.47-0.21-0.47-0.47c0-0.26,0.21-0.47,0.47-0.47h55.79
					c0.26,0,0.47,0.21,0.47,0.47C56.82,13.78,56.61,13.99,56.35,13.99z"/>
			</g>
		</g>
	</g>
	<g>
		<g>
			<g>
				<path class="st2" d="M13.49,13.51c-0.26,0-0.47-0.21-0.47-0.47V8.42c0-0.26,0.21-0.47,0.47-0.47s0.47,0.21,0.47,0.47v4.62
					C13.97,13.3,13.75,13.51,13.49,13.51z"/>
			</g>
		</g>
	</g>
	<g>
		<g>
			<g>
				<path class="st2" d="M54.65,48.72H2.23c-1.18,0-2.18-1.01-2.18-2.2v-5.87c0-0.13,0.05-0.25,0.14-0.34l10.97-10.96
					c0.19-0.18,0.49-0.18,0.67,0l4.1,4.09L26.8,22.58c0.19-0.19,0.49-0.19,0.67,0l11.35,11.34l8.72-8.73
					c0.09-0.09,0.21-0.13,0.34-0.13c0,0,0,0,0,0c0.13,0,0.25,0.05,0.34,0.14l8.44,8.57c0.09,0.09,0.14,0.21,0.14,0.33v12.42
					C56.79,47.73,55.83,48.72,54.65,48.72z M1,40.84v5.68c0,0.66,0.57,1.25,1.23,1.25h52.43c0.65,0,1.19-0.57,1.19-1.25V34.29
					l-7.97-8.1l-8.72,8.73c-0.09,0.09-0.21,0.13-0.34,0.13h0c-0.13,0-0.25-0.04-0.34-0.13L27.14,23.58L16.27,34.45
					c-0.19,0.19-0.49,0.19-0.67,0l-4.1-4.09L1,40.84z"/>
			</g>
		</g>
	</g>
	<g>
		<g>
			<g>
				<g>
					<path class="st2" d="M4.19,12.16c-0.68,0-1.24-0.56-1.24-1.24c0-0.68,0.56-1.24,1.24-1.24s1.24,0.56,1.24,1.24
						C5.42,11.61,4.87,12.16,4.19,12.16z M4.19,10.64c-0.16,0-0.29,0.13-0.29,0.29c0,0.16,0.13,0.29,0.29,0.29
						c0.16,0,0.29-0.13,0.29-0.29C4.47,10.77,4.34,10.64,4.19,10.64z"/>
				</g>
			</g>
		</g>
		<g>
			<g>
				<g>
					<path class="st2" d="M7.04,12.16c-0.68,0-1.24-0.56-1.24-1.24c0-0.68,0.56-1.24,1.24-1.24s1.24,0.56,1.24,1.24
						C8.28,11.61,7.73,12.16,7.04,12.16z M7.04,10.64c-0.16,0-0.29,0.13-0.29,0.29c0,0.16,0.13,0.29,0.29,0.29
						c0.16,0,0.29-0.13,0.29-0.29C7.33,10.77,7.2,10.64,7.04,10.64z"/>
				</g>
			</g>
		</g>
		<g>
			<g>
				<g>
					<path class="st2" d="M9.9,12.16c-0.68,0-1.24-0.56-1.24-1.24c0-0.68,0.56-1.24,1.24-1.24c0.68,0,1.24,0.56,1.24,1.24
						C11.14,11.61,10.58,12.16,9.9,12.16z M9.9,10.64c-0.16,0-0.29,0.13-0.29,0.29c0,0.16,0.13,0.29,0.29,0.29
						c0.16,0,0.29-0.13,0.29-0.29C10.19,10.77,10.06,10.64,9.9,10.64z"/>
				</g>
			</g>
		</g>
	</g>
	<g>
		<g>
			<g>
				<g>
					<path class="st2" d="M29.65,10.64H15.61c-0.26,0-0.47-0.21-0.47-0.47c0-0.26,0.21-0.47,0.47-0.47h14.04
						c0.26,0,0.47,0.21,0.47,0.47C30.13,10.42,29.92,10.64,29.65,10.64z"/>
				</g>
			</g>
		</g>
		<g>
			<g>
				<g>
					<path class="st2" d="M43.13,12.15H15.61c-0.26,0-0.47-0.21-0.47-0.47c0-0.26,0.21-0.47,0.47-0.47h27.52
						c0.26,0,0.47,0.21,0.47,0.47C43.6,11.94,43.39,12.15,43.13,12.15z"/>
				</g>
			</g>
		</g>
	</g>
	<g>
		<g>
			<g>
				<g>
					<path class="st2" d="M4.98,17.22h-2.4c-0.26,0-0.47-0.21-0.47-0.47c0-0.26,0.21-0.47,0.47-0.47h2.4c0.26,0,0.47,0.21,0.47,0.47
						C5.46,17,5.25,17.22,4.98,17.22z"/>
				</g>
			</g>
		</g>
		<g>
			<g>
				<g>
					<path class="st2" d="M13.52,19.05H2.58c-0.26,0-0.47-0.21-0.47-0.47s0.21-0.47,0.47-0.47h10.94c0.26,0,0.47,0.21,0.47,0.47
						S13.79,19.05,13.52,19.05z"/>
				</g>
			</g>
		</g>
	</g>
</g>
<g>
	<g>
		<g>
			<g>
				<g>
					<path class="st2" d="M71.51,86.52c-6.47,0-11.73-5.26-11.73-11.73c0-6.47,5.26-11.73,11.73-11.73
						c6.47,0,11.73,5.26,11.73,11.73C83.24,81.26,77.98,86.52,71.51,86.52z M71.51,64.01c-5.94,0-10.78,4.84-10.78,10.78
						c0,5.94,4.84,10.78,10.78,10.78s10.78-4.84,10.78-10.78C82.29,68.84,77.46,64.01,71.51,64.01z"/>
				</g>
			</g>
		</g>
		<g>
			<g>
				<g>
					<path class="st2" d="M71.51,91.05c-4.34,0-8.43-1.69-11.5-4.76c-3.07-3.07-4.76-7.16-4.76-11.5c0-4.34,1.69-8.43,4.76-11.5
						c3.07-3.07,7.16-4.76,11.5-4.76s8.43,1.69,11.5,4.76c3.07,3.07,4.76,7.16,4.76,11.5c0,4.34-1.69,8.43-4.76,11.5
						C79.94,89.36,75.86,91.05,71.51,91.05z M71.51,59.47c-8.44,0-15.31,6.87-15.31,15.31S63.07,90.1,71.51,90.1
						c8.44,0,15.31-6.87,15.31-15.31S79.96,59.47,71.51,59.47z"/>
				</g>
			</g>
		</g>
		<g>
			<g>
				<g>
					<path class="st2" d="M71.51,82.21c-4.09,0-7.42-3.33-7.42-7.42c0-4.09,3.33-7.42,7.42-7.42c4.09,0,7.42,3.33,7.42,7.42
						C78.93,78.88,75.6,82.21,71.51,82.21z M71.51,68.32c-3.57,0-6.47,2.9-6.47,6.47c0,3.57,2.9,6.47,6.47,6.47
						c3.57,0,6.47-2.9,6.47-6.47C77.98,71.22,75.08,68.32,71.51,68.32z"/>
				</g>
			</g>
		</g>
		<g>
			<g>
				<g>
					<path class="st2" d="M71.51,78.2c-1.88,0-3.41-1.53-3.41-3.41c0-1.88,1.53-3.41,3.41-3.41c1.88,0,3.41,1.53,3.41,3.41
						C74.92,76.67,73.39,78.2,71.51,78.2z M71.51,72.33c-1.36,0-2.46,1.1-2.46,2.46c0,1.36,1.1,2.46,2.46,2.46s2.46-1.1,2.46-2.46
						C73.97,73.43,72.87,72.33,71.51,72.33z"/>
				</g>
			</g>
		</g>
	</g>
</g>
<g>
	<g>
		<g>
			<g>
				<g>
					<path class="st2" d="M71.47,75.31c-0.12,0-0.24-0.05-0.34-0.14c-0.19-0.19-0.19-0.49,0-0.67l16.19-16.19
						c0.19-0.19,0.49-0.19,0.67,0c0.19,0.19,0.19,0.49,0,0.67L71.81,75.18C71.71,75.27,71.59,75.31,71.47,75.31z"/>
				</g>
			</g>
		</g>
		<g>
			<g>
				<g>
					<path class="st2" d="M91.75,60.22c-0.06,0-0.12,0-0.18-0.01l-4.55-0.52c-0.18-0.02-0.33-0.14-0.39-0.32
						c-0.06-0.17-0.02-0.36,0.11-0.49l7.72-7.72c0.17-0.17,0.4-0.25,0.63-0.22l4.23,0.49c0.31,0.04,0.57,0.24,0.67,0.53
						c0.1,0.29,0.03,0.61-0.19,0.83l-2.33,2.33c-0.19,0.19-0.49,0.19-0.67,0c-0.19-0.19-0.19-0.49,0-0.67l2.12-2.12l-3.85-0.44
						l-6.97,6.97l3.57,0.41c0.18,0.02,0.35-0.04,0.47-0.17l1.02-1.02h-0.23c-0.26,0-0.47-0.21-0.47-0.47s0.21-0.47,0.47-0.47h1.37
						c0.19,0,0.36,0.12,0.44,0.29c0.07,0.18,0.03,0.38-0.1,0.52l-1.83,1.83C92.54,60.06,92.16,60.22,91.75,60.22z"/>
				</g>
			</g>
		</g>
		<g>
			<g>
				<g>
					<path class="st2" d="M95.54,56.89c-0.12,0-0.24-0.05-0.34-0.14c-0.19-0.19-0.19-0.49,0-0.67l0.4-0.4
						c0.19-0.19,0.49-0.19,0.67,0c0.19,0.19,0.19,0.49,0,0.67l-0.4,0.4C95.78,56.84,95.66,56.89,95.54,56.89z"/>
				</g>
			</g>
		</g>
	</g>
	<g>
		<g>
			<g>
				<path class="st2" d="M73.1,75.3h-1.63c-0.26,0-0.47-0.21-0.47-0.47V73.2c0-0.26,0.21-0.47,0.47-0.47s0.47,0.21,0.47,0.47v1.15
					h1.15c0.26,0,0.47,0.21,0.47,0.47C73.57,75.09,73.36,75.3,73.1,75.3z"/>
			</g>
		</g>
	</g>
</g>
<g>
	<g>
		<g>
			<g>
				<path class="st2" d="M28.42,52.29c-0.26,0-0.47-0.21-0.47-0.47V51c0-0.26,0.21-0.47,0.47-0.47S28.9,50.73,28.9,51v0.82
					C28.9,52.08,28.68,52.29,28.42,52.29z"/>
			</g>
		</g>
	</g>
	<g>
		<g>
			<g>
				<path class="st2" d="M28.42,71.46c-0.26,0-0.47-0.21-0.47-0.47v-1.71c0-0.26,0.21-0.47,0.47-0.47s0.47,0.21,0.47,0.47v1.71
					C28.9,71.25,28.68,71.46,28.42,71.46z M28.42,66.65c-0.26,0-0.47-0.21-0.47-0.47v-1.71c0-0.26,0.21-0.47,0.47-0.47
					s0.47,0.21,0.47,0.47v1.71C28.9,66.44,28.68,66.65,28.42,66.65z M28.42,61.84c-0.26,0-0.47-0.21-0.47-0.47v-1.71
					c0-0.26,0.21-0.47,0.47-0.47s0.47,0.21,0.47,0.47v1.71C28.9,61.63,28.68,61.84,28.42,61.84z M28.42,57.04
					c-0.26,0-0.47-0.21-0.47-0.47v-1.71c0-0.26,0.21-0.47,0.47-0.47s0.47,0.21,0.47,0.47v1.71C28.9,56.82,28.68,57.04,28.42,57.04z"
					/>
			</g>
		</g>
	</g>
	<g>
		<g>
			<g>
				<path class="st2" d="M29.21,75.35h-0.79c-0.26,0-0.47-0.21-0.47-0.47v-0.79c0-0.26,0.21-0.47,0.47-0.47s0.47,0.21,0.47,0.47
					v0.32h0.32c0.26,0,0.47,0.21,0.47,0.47C29.69,75.14,29.47,75.35,29.21,75.35z"/>
			</g>
		</g>
	</g>
	<g>
		<g>
			<g>
				<path class="st2" d="M47.68,75.35h-1.64c-0.26,0-0.47-0.21-0.47-0.47c0-0.26,0.21-0.47,0.47-0.47h1.64
					c0.26,0,0.47,0.21,0.47,0.47C48.16,75.14,47.95,75.35,47.68,75.35z M43.07,75.35h-1.64c-0.26,0-0.47-0.21-0.47-0.47
					c0-0.26,0.21-0.47,0.47-0.47h1.64c0.26,0,0.47,0.21,0.47,0.47C43.54,75.14,43.33,75.35,43.07,75.35z M38.45,75.35H36.8
					c-0.26,0-0.47-0.21-0.47-0.47c0-0.26,0.21-0.47,0.47-0.47h1.64c0.26,0,0.47,0.21,0.47,0.47C38.92,75.14,38.71,75.35,38.45,75.35
					z M33.83,75.35h-1.64c-0.26,0-0.47-0.21-0.47-0.47c0-0.26,0.21-0.47,0.47-0.47h1.64c0.26,0,0.47,0.21,0.47,0.47
					C34.3,75.14,34.09,75.35,33.83,75.35z"/>
			</g>
		</g>
	</g>
	<g>
		<g>
			<g>
				<path class="st2" d="M51.61,75.35h-0.82c-0.26,0-0.47-0.21-0.47-0.47c0-0.26,0.21-0.47,0.47-0.47h0.82
					c0.26,0,0.47,0.21,0.47,0.47C52.08,75.14,51.87,75.35,51.61,75.35z"/>
			</g>
		</g>
	</g>
</g>
<g>
	<g>
		<g>
			<g>
				<path class="st2" d="M71.5,56.02c-0.26,0-0.47-0.21-0.47-0.47v-0.76c0-0.26,0.21-0.47,0.47-0.47c0.26,0,0.47,0.21,0.47,0.47
					v0.76C71.97,55.81,71.76,56.02,71.5,56.02z"/>
			</g>
		</g>
	</g>
	<g>
		<g>
			<g>
				<path class="st2" d="M71.5,52.23c-0.26,0-0.47-0.21-0.47-0.47v-1.64c0-0.26,0.21-0.47,0.47-0.47c0.26,0,0.47,0.21,0.47,0.47
					v1.64C71.97,52.02,71.76,52.23,71.5,52.23z M71.5,47.61c-0.26,0-0.47-0.21-0.47-0.47v-1.64c0-0.26,0.21-0.47,0.47-0.47
					c0.26,0,0.47,0.21,0.47,0.47v1.64C71.97,47.4,71.76,47.61,71.5,47.61z M71.5,42.99c-0.26,0-0.47-0.21-0.47-0.47v-1.64
					c0-0.26,0.21-0.47,0.47-0.47c0.26,0,0.47,0.21,0.47,0.47v1.64C71.97,42.78,71.76,42.99,71.5,42.99z M71.5,38.38
					c-0.26,0-0.47-0.21-0.47-0.47v-1.64c0-0.26,0.21-0.47,0.47-0.47c0.26,0,0.47,0.21,0.47,0.47v1.64
					C71.97,38.16,71.76,38.38,71.5,38.38z M71.5,33.76c-0.26,0-0.47-0.21-0.47-0.47v-1.64c0-0.26,0.21-0.47,0.47-0.47
					c0.26,0,0.47,0.21,0.47,0.47v1.64C71.97,33.55,71.76,33.76,71.5,33.76z"/>
			</g>
		</g>
	</g>
	<g>
		<g>
			<g>
				<path class="st2" d="M71.5,29.01c-0.26,0-0.47-0.21-0.47-0.47v-0.32h-0.32c-0.26,0-0.47-0.21-0.47-0.47
					c0-0.26,0.21-0.47,0.47-0.47h0.79c0.26,0,0.47,0.21,0.47,0.47v0.79C71.97,28.8,71.76,29.01,71.5,29.01z"/>
			</g>
		</g>
	</g>
	<g>
		<g>
			<g>
				<path class="st2" d="M67.29,28.22h-1.9c-0.26,0-0.47-0.21-0.47-0.47c0-0.26,0.21-0.47,0.47-0.47h1.9c0.26,0,0.47,0.21,0.47,0.47
					C67.77,28.01,67.56,28.22,67.29,28.22z"/>
			</g>
		</g>
	</g>
	<g>
		<g>
			<g>
				<path class="st2" d="M61.98,28.22h-0.76c-0.26,0-0.47-0.21-0.47-0.47c0-0.26,0.21-0.47,0.47-0.47h0.76
					c0.26,0,0.47,0.21,0.47,0.47C62.45,28.01,62.24,28.22,61.98,28.22z"/>
			</g>
		</g>
	</g>
</g>
<g>
	<g>
		<g>
			<path class="st2" d="M2.45,88.84C2.13,88.69,1.99,88.32,2.14,88l0,0c0.15-0.32,0.52-0.45,0.84-0.31l0,0
				c0.32,0.15,0.45,0.52,0.31,0.84l0,0c-0.11,0.23-0.34,0.37-0.57,0.37l0,0C2.62,88.9,2.53,88.88,2.45,88.84z M4.29,88.52
				c-0.16-0.31-0.03-0.69,0.28-0.85l0,0l0,0l0,0c0.31-0.16,0.69-0.03,0.85,0.28l0,0c0.16,0.31,0.03,0.69-0.28,0.85l0,0
				c-0.09,0.05-0.19,0.07-0.28,0.07l0,0C4.62,88.87,4.4,88.74,4.29,88.52z M0.75,86.75c-0.08-0.34,0.13-0.68,0.47-0.76l0,0
				c0.34-0.08,0.68,0.13,0.76,0.47l0,0l0,0l0,0c0.08,0.34-0.13,0.68-0.47,0.76l0,0c-0.05,0.01-0.1,0.02-0.15,0.02l0,0
				C1.07,87.24,0.82,87.05,0.75,86.75z M6.03,87.16c-0.34-0.07-0.56-0.4-0.49-0.75l0,0c0,0,0,0,0,0l0,0
				c0.07-0.34,0.4-0.56,0.75-0.49l0,0c0.34,0.07,0.56,0.4,0.49,0.75l0,0c-0.06,0.3-0.33,0.51-0.62,0.51l0,0
				C6.11,87.17,6.07,87.17,6.03,87.16z M1.43,85.02c-0.27-0.22-0.32-0.61-0.1-0.89l0,0c0.22-0.27,0.61-0.32,0.89-0.1l0,0
				c0.27,0.22,0.32,0.61,0.1,0.89l0,0c-0.13,0.16-0.31,0.24-0.5,0.24l0,0C1.69,85.15,1.55,85.11,1.43,85.02z M5.15,84.87
				C5.15,84.87,5.15,84.87,5.15,84.87L5.15,84.87c-0.22-0.27-0.19-0.67,0.08-0.89l0,0c0.27-0.22,0.67-0.19,0.89,0.08h0
				c0.22,0.27,0.19,0.67-0.08,0.89l0,0c-0.12,0.1-0.26,0.15-0.41,0.15l0,0C5.45,85.1,5.27,85.02,5.15,84.87z M3.12,83.59
				c0-0.35,0.28-0.63,0.63-0.63l0,0c0.35,0,0.63,0.28,0.63,0.63l0,0c0,0.35-0.28,0.63-0.63,0.63l0,0
				C3.4,84.22,3.12,83.94,3.12,83.59z"/>
		</g>
	</g>
</g>
<g>
	<g>
		<g>
			<path class="st2" d="M94.43,14.92c-0.32-0.15-0.45-0.52-0.31-0.84l0,0c0.15-0.32,0.52-0.45,0.84-0.3l0,0
				c0.32,0.15,0.45,0.52,0.31,0.84l0,0c-0.11,0.23-0.34,0.36-0.57,0.36l0,0C94.61,14.98,94.52,14.96,94.43,14.92z M96.27,14.6
				c-0.16-0.31-0.03-0.69,0.28-0.85l0,0c0.31-0.16,0.69-0.03,0.85,0.28l0,0c0.16,0.31,0.03,0.69-0.28,0.85l0,0
				c-0.09,0.05-0.19,0.07-0.28,0.07l0,0C96.61,14.95,96.38,14.82,96.27,14.6z M92.73,12.83c-0.08-0.34,0.13-0.68,0.47-0.76l0,0
				c0.34-0.08,0.68,0.13,0.76,0.47l0,0c0.08,0.34-0.13,0.68-0.47,0.76l0,0c-0.05,0.01-0.1,0.02-0.15,0.02l0,0
				C93.06,13.32,92.8,13.13,92.73,12.83z M98.01,13.24c-0.34-0.07-0.56-0.4-0.49-0.75l0,0l0,0l0,0c0.07-0.34,0.4-0.56,0.75-0.49l0,0
				c0.34,0.07,0.56,0.4,0.49,0.75l0,0c-0.06,0.3-0.33,0.51-0.62,0.51l0,0C98.1,13.25,98.06,13.25,98.01,13.24z M93.42,11.1
				c-0.27-0.22-0.32-0.61-0.1-0.89l0,0c0.22-0.27,0.61-0.32,0.89-0.1l0,0c0.27,0.22,0.32,0.61,0.1,0.89l0,0
				c-0.12,0.16-0.31,0.24-0.5,0.24l0,0C93.67,11.23,93.54,11.19,93.42,11.1z M97.13,10.95c-0.22-0.27-0.19-0.67,0.08-0.89l0,0
				c0.27-0.22,0.67-0.19,0.89,0.08l0,0c0.22,0.27,0.19,0.67-0.08,0.89l0,0c-0.12,0.1-0.26,0.15-0.41,0.15l0,0
				C97.44,11.18,97.26,11.1,97.13,10.95z M95.1,9.67c0-0.35,0.28-0.63,0.63-0.63l0,0c0.35,0,0.63,0.28,0.63,0.63l0,0
				c0,0.35-0.28,0.63-0.63,0.63l0,0C95.39,10.3,95.1,10.02,95.1,9.67z"/>
		</g>
	</g>
</g>
<g>
	<g>
		<g>
			<path class="st2" d="M17.39,58.37c-0.32-0.15-0.45-0.52-0.31-0.84l0,0c0.15-0.32,0.52-0.45,0.84-0.3l0,0
				c0.32,0.15,0.45,0.52,0.3,0.84l0,0c-0.11,0.23-0.34,0.36-0.57,0.36l0,0C17.57,58.43,17.48,58.42,17.39,58.37z M19.24,58.05
				c-0.16-0.31-0.03-0.69,0.28-0.85l0,0c0.31-0.16,0.69-0.03,0.85,0.28l0,0c0.16,0.31,0.03,0.69-0.28,0.85l0,0
				c-0.09,0.05-0.19,0.07-0.28,0.07l0,0C19.57,58.4,19.35,58.28,19.24,58.05z M15.7,56.29c-0.08-0.34,0.13-0.68,0.47-0.76l0,0
				c0.34-0.08,0.68,0.13,0.76,0.47l0,0c0.08,0.34-0.13,0.68-0.47,0.76l0,0c-0.05,0.01-0.1,0.02-0.15,0.02l0,0
				C16.02,56.78,15.76,56.58,15.7,56.29z M20.98,56.69c-0.34-0.07-0.56-0.4-0.49-0.75l0,0c0.07-0.34,0.4-0.56,0.75-0.49l0,0
				c0.34,0.07,0.56,0.4,0.49,0.75h0c-0.06,0.3-0.32,0.51-0.62,0.51l0,0C21.06,56.71,21.02,56.7,20.98,56.69z M16.38,54.55
				c-0.27-0.22-0.32-0.61-0.1-0.89l0,0c0.22-0.27,0.61-0.32,0.89-0.1l0,0c0.27,0.22,0.32,0.61,0.1,0.89l0,0
				c-0.12,0.16-0.31,0.24-0.5,0.24l0,0C16.64,54.69,16.5,54.64,16.38,54.55z M20.1,54.41L20.1,54.41L20.1,54.41
				c-0.22-0.27-0.19-0.67,0.08-0.89l0,0c0.27-0.22,0.67-0.19,0.89,0.08l0,0c0.22,0.27,0.19,0.67-0.08,0.89l0,0
				c-0.12,0.1-0.26,0.15-0.41,0.15l0,0C20.4,54.63,20.22,54.56,20.1,54.41z M18.07,53.12c0-0.35,0.28-0.63,0.63-0.63l0,0
				c0.35,0,0.63,0.28,0.63,0.63l0,0c0,0.35-0.28,0.63-0.63,0.63l0,0C18.35,53.76,18.07,53.47,18.07,53.12z"/>
		</g>
	</g>
</g>
<g>
	<g>
		<g>
			<path class="st2" d="M47.4,88L47.4,88c-0.32-0.15-0.45-0.52-0.31-0.84l0,0c0.15-0.32,0.52-0.45,0.84-0.31l0,0c0,0,0,0,0,0l0,0
				c0.32,0.15,0.45,0.52,0.31,0.84l0,0c-0.11,0.23-0.34,0.36-0.57,0.36l0,0C47.58,88.06,47.48,88.04,47.4,88z M49.24,87.68
				c-0.16-0.31-0.03-0.69,0.28-0.85l0,0c0.31-0.16,0.69-0.03,0.85,0.28l0,0c0.16,0.31,0.03,0.69-0.28,0.85l0,0
				C50,88,49.9,88.03,49.81,88.03l0,0C49.57,88.03,49.35,87.9,49.24,87.68z M45.7,85.91c-0.08-0.34,0.13-0.68,0.47-0.76l0,0
				c0.34-0.08,0.68,0.13,0.76,0.47l0,0c0,0,0,0,0,0l0,0c0.08,0.34-0.13,0.68-0.47,0.76l0,0c-0.05,0.01-0.1,0.02-0.15,0.02l0,0
				C46.03,86.4,45.77,86.2,45.7,85.91z M50.98,86.32c-0.34-0.07-0.56-0.4-0.49-0.75l0,0c0.07-0.34,0.4-0.56,0.75-0.49l0,0
				c0.34,0.07,0.56,0.4,0.49,0.75l0,0c-0.06,0.3-0.32,0.5-0.62,0.5l0,0C51.07,86.33,51.02,86.33,50.98,86.32z M46.39,84.17
				c-0.27-0.22-0.32-0.61-0.1-0.89l0,0c0.22-0.27,0.61-0.32,0.89-0.1l0,0c0.27,0.22,0.32,0.61,0.1,0.89l0,0
				c-0.13,0.16-0.31,0.24-0.5,0.24l0,0C46.64,84.31,46.5,84.27,46.39,84.17z M50.1,84.03L50.1,84.03L50.1,84.03
				c-0.22-0.27-0.19-0.67,0.08-0.89l0,0c0.27-0.22,0.67-0.19,0.89,0.08l0,0c0.23,0.27,0.19,0.67-0.08,0.89l0,0
				c-0.12,0.1-0.26,0.15-0.41,0.15l0,0C50.4,84.26,50.22,84.18,50.1,84.03z M48.07,82.75c0-0.35,0.28-0.63,0.63-0.63l0,0
				c0.35,0,0.63,0.28,0.63,0.63l0,0c0,0.35-0.28,0.63-0.63,0.63l0,0C48.35,83.38,48.07,83.1,48.07,82.75z"/>
		</g>
	</g>
</g>
<g>
	<g>
		<g>
			<path class="st2" d="M77.22,52.34c-0.32-0.15-0.45-0.52-0.31-0.84l0,0c0.15-0.32,0.52-0.45,0.84-0.31l0,0
				c0.32,0.15,0.45,0.52,0.3,0.84l0,0c-0.11,0.23-0.34,0.37-0.57,0.37l0,0C77.4,52.4,77.31,52.38,77.22,52.34z M79.06,52.02
				c-0.16-0.31-0.03-0.69,0.28-0.85l0,0c0.31-0.16,0.69-0.03,0.85,0.28l0,0c0.16,0.31,0.03,0.69-0.28,0.85h0
				c-0.09,0.05-0.19,0.07-0.28,0.07l0,0C79.4,52.37,79.17,52.24,79.06,52.02z M75.52,50.25c-0.08-0.34,0.13-0.68,0.47-0.76l0,0
				c0.34-0.08,0.68,0.13,0.76,0.47l0,0l0,0l0,0c0.08,0.34-0.13,0.68-0.47,0.76l0,0c-0.05,0.01-0.1,0.02-0.15,0.02l0,0
				C75.85,50.74,75.59,50.54,75.52,50.25z M80.8,50.66c-0.34-0.07-0.56-0.4-0.49-0.75l0,0c0.07-0.34,0.4-0.56,0.75-0.49l0,0
				c0.34,0.07,0.56,0.4,0.49,0.75h0c-0.06,0.3-0.32,0.51-0.62,0.51l0,0C80.89,50.67,80.85,50.67,80.8,50.66z M76.21,48.51
				c-0.27-0.22-0.32-0.61-0.1-0.89l0,0c0.22-0.27,0.61-0.32,0.89-0.1l0,0c0.27,0.22,0.32,0.61,0.1,0.89l0,0
				c-0.12,0.16-0.31,0.24-0.5,0.24l0,0C76.46,48.65,76.32,48.61,76.21,48.51z M79.92,48.37C79.7,48.1,79.73,47.7,80,47.48l0,0
				c0.27-0.22,0.67-0.19,0.89,0.08h0c0.23,0.27,0.19,0.67-0.08,0.89l0,0c-0.12,0.1-0.26,0.15-0.41,0.15l0,0
				C80.23,48.6,80.05,48.52,79.92,48.37z M77.89,47.09c0-0.35,0.28-0.63,0.63-0.63l0,0c0.35,0,0.63,0.28,0.63,0.63l0,0
				c0,0.35-0.28,0.63-0.63,0.63l0,0C78.18,47.72,77.89,47.44,77.89,47.09z"/>
		</g>
	</g>
</g>
<g>
	<g>
		<g>
			<path class="st2" d="M64.55,19.43c-0.32-0.15-0.45-0.52-0.31-0.84l0,0c0.15-0.32,0.52-0.45,0.84-0.31l0,0
				c0.32,0.15,0.45,0.52,0.31,0.84l0,0c-0.11,0.23-0.34,0.36-0.57,0.36l0,0C64.73,19.49,64.64,19.47,64.55,19.43z M66.39,19.11
				c-0.16-0.31-0.03-0.69,0.28-0.85l0,0c0.31-0.16,0.69-0.03,0.85,0.28l0,0c0.16,0.31,0.03,0.69-0.28,0.85l0,0
				c-0.09,0.05-0.19,0.07-0.28,0.07l0,0C66.73,19.46,66.51,19.33,66.39,19.11z M62.85,17.34c-0.08-0.34,0.13-0.68,0.47-0.76l0,0
				c0.34-0.08,0.68,0.13,0.76,0.47l0,0c0.08,0.34-0.13,0.68-0.47,0.76l0,0c-0.05,0.01-0.1,0.02-0.15,0.02l0,0
				C63.18,17.83,62.92,17.63,62.85,17.34z M68.13,17.75c-0.34-0.07-0.56-0.4-0.49-0.75l0,0c0.07-0.34,0.4-0.56,0.75-0.49l0,0
				c0.34,0.07,0.56,0.4,0.49,0.75l0,0c-0.06,0.3-0.33,0.51-0.62,0.51l0,0C68.22,17.76,68.18,17.76,68.13,17.75z M63.54,15.6
				c-0.27-0.22-0.32-0.61-0.1-0.89l0,0c0.22-0.27,0.61-0.32,0.89-0.1l0,0c0.27,0.22,0.32,0.61,0.1,0.89l0,0
				c-0.12,0.16-0.31,0.24-0.5,0.24l0,0C63.8,15.74,63.66,15.7,63.54,15.6z M67.25,15.46c-0.22-0.27-0.19-0.67,0.08-0.89l0,0
				c0.27-0.22,0.67-0.19,0.89,0.08l0,0c0.22,0.27,0.19,0.67-0.08,0.89l0,0c-0.12,0.1-0.26,0.15-0.41,0.15l0,0
				C67.56,15.69,67.38,15.61,67.25,15.46z M65.23,14.18c0-0.35,0.28-0.63,0.63-0.63l0,0c0.35,0,0.63,0.28,0.63,0.63l0,0
				c0,0.35-0.28,0.63-0.63,0.63l0,0l0,0l0,0C65.51,14.81,65.23,14.53,65.23,14.18z"/>
		</g>
	</g>
</g>
<g>
	<g>
		<g>
			<g>
				<path class="st2" d="M3.75,62.48c-0.26,0-0.47-0.21-0.47-0.47v-3.23c0-0.26,0.21-0.47,0.47-0.47s0.47,0.21,0.47,0.47V62
					C4.22,62.26,4.01,62.48,3.75,62.48z"/>
			</g>
		</g>
	</g>
	<g>
		<g>
			<g>
				<path class="st2" d="M5.36,60.86H2.14c-0.26,0-0.47-0.21-0.47-0.47c0-0.26,0.21-0.47,0.47-0.47h3.23c0.26,0,0.47,0.21,0.47,0.47
					C5.84,60.65,5.63,60.86,5.36,60.86z"/>
			</g>
		</g>
	</g>
</g>
<g>
	<g>
		<g>
			<g>
				<path class="st2" d="M95.54,42.36c-0.26,0-0.47-0.21-0.47-0.47v-3.23c0-0.26,0.21-0.47,0.47-0.47s0.47,0.21,0.47,0.47v3.23
					C96.01,42.15,95.8,42.36,95.54,42.36z"/>
			</g>
		</g>
	</g>
	<g>
		<g>
			<g>
				<path class="st2" d="M97.15,40.75h-3.23c-0.26,0-0.47-0.21-0.47-0.47c0-0.26,0.21-0.47,0.47-0.47h3.23
					c0.26,0,0.47,0.21,0.47,0.47C97.63,40.54,97.41,40.75,97.15,40.75z"/>
			</g>
		</g>
	</g>
</g>
<g>
	<g>
		<g>
			<g>
				<path class="st2" d="M94.27,79.56c-0.26,0-0.47-0.21-0.47-0.47v-3.23c0-0.26,0.21-0.47,0.47-0.47s0.47,0.21,0.47,0.47v3.23
					C94.75,79.34,94.53,79.56,94.27,79.56z"/>
			</g>
		</g>
	</g>
	<g>
		<g>
			<g>
				<path class="st2" d="M95.89,77.94h-3.23c-0.26,0-0.47-0.21-0.47-0.47s0.21-0.47,0.47-0.47h3.23c0.26,0,0.47,0.21,0.47,0.47
					S96.15,77.94,95.89,77.94z"/>
			</g>
		</g>
	</g>
</g>
<g>
	<g>
		<g>
			<g>
				<path class="st2" d="M82,20.09c-0.26,0-0.47-0.21-0.47-0.47v-3.23c0-0.26,0.21-0.47,0.47-0.47c0.26,0,0.47,0.21,0.47,0.47v3.23
					C82.47,19.88,82.26,20.09,82,20.09z"/>
			</g>
		</g>
	</g>
	<g>
		<g>
			<g>
				<path class="st2" d="M83.61,18.48h-3.23c-0.26,0-0.47-0.21-0.47-0.47c0-0.26,0.21-0.47,0.47-0.47h3.23
					c0.26,0,0.47,0.21,0.47,0.47C84.09,18.27,83.88,18.48,83.61,18.48z"/>
			</g>
		</g>
	</g>
</g>
<g>
	<g>
		<g>
			<g>
				<path class="st2" d="M27.54,88.16c-0.26,0-0.47-0.21-0.47-0.47v-3.23c0-0.26,0.21-0.47,0.47-0.47s0.47,0.21,0.47,0.47v3.23
					C28.01,87.95,27.8,88.16,27.54,88.16z"/>
			</g>
		</g>
	</g>
	<g>
		<g>
			<g>
				<path class="st2" d="M29.15,86.55h-3.23c-0.26,0-0.47-0.21-0.47-0.47c0-0.26,0.21-0.47,0.47-0.47h3.23
					c0.26,0,0.47,0.21,0.47,0.47C29.62,86.33,29.41,86.55,29.15,86.55z"/>
			</g>
		</g>
	</g>
</g>
</svg>
