<?xml version="1.0" encoding="utf-8"?>
<!-- Generator: Adobe Illustrator 23.0.6, SVG Export Plug-In . SVG Version: 6.00 Build 0)  -->
<svg version="1.1" id="Layer_1" xmlns="http://www.w3.org/2000/svg" xmlns:xlink="http://www.w3.org/1999/xlink" x="0px" y="0px"
	 viewBox="0 0 100 100" style="enable-background:new 0 0 100 100;" xml:space="preserve">
<style type="text/css">
	.st0{fill:#A7C739;}
	.st1{fill:#5CC2E7;}
	.st2{fill:#1E243A;}
</style>
<g>
	<polygon class="st0" points="26.06,72.45 26.06,82.57 29.39,82.57 29.39,69.4 	"/>
</g>
<g>
	<polygon class="st0" points="35.07,63.17 32.49,65.91 32.49,82.57 35.82,82.57 35.82,64.2 	"/>
</g>
<g>
	<polygon class="st0" points="38.92,67.36 38.92,82.57 42.26,82.57 42.26,70.68 	"/>
</g>
<g>
	<polygon class="st0" points="51.79,74.18 51.79,82.57 55.12,82.57 55.12,70.68 	"/>
</g>
<g>
	<polygon class="st0" points="58.22,82.57 61.56,82.57 61.56,64.2 58.22,67.58 	"/>
</g>
<g>
	<polygon class="st0" points="45.36,73.72 45.36,82.57 48.69,82.57 48.69,77.06 	"/>
</g>
<g>
	<rect x="64.66" y="66.3" class="st0" width="3.33" height="16.27"/>
</g>
<g>
	<rect x="71.09" y="60.97" class="st0" width="3.33" height="21.6"/>
</g>
<g>
	<path class="st1" d="M15.61,24.37V35.8c0.06,0,0.05,0,0.07,0c6.25,0,11.34-4.99,11.47-11.21c-0.04-0.08-0.07-0.16-0.1-0.22H15.61z"
		/>
</g>
<g>
	<g>
		<path class="st2" d="M73.15,29.64c-0.25,0-0.44-0.2-0.44-0.44v-2.86c0-0.25,0.2-0.44,0.44-0.44s0.44,0.2,0.44,0.44v2.86
			C73.6,29.44,73.4,29.64,73.15,29.64z"/>
	</g>
	<g>
		<path class="st2" d="M74.62,28.24h-2.86c-0.25,0-0.44-0.2-0.44-0.44c0-0.25,0.2-0.44,0.44-0.44h2.86c0.25,0,0.44,0.2,0.44,0.44
			C75.06,28.04,74.86,28.24,74.62,28.24z"/>
	</g>
</g>
<g>
	<g>
		<path class="st2" d="M92.72,55.36c-0.25,0-0.44-0.2-0.44-0.44v-2.86c0-0.25,0.2-0.44,0.44-0.44s0.44,0.2,0.44,0.44v2.86
			C93.16,55.16,92.96,55.36,92.72,55.36z"/>
	</g>
	<g>
		<path class="st2" d="M94.18,53.97h-2.86c-0.25,0-0.44-0.2-0.44-0.44c0-0.25,0.2-0.44,0.44-0.44h2.86c0.25,0,0.44,0.2,0.44,0.44
			C94.62,53.77,94.43,53.97,94.18,53.97z"/>
	</g>
</g>
<g>
	<g>
		<path class="st2" d="M6.08,46.41c-0.25,0-0.44-0.2-0.44-0.44V43.1c0-0.25,0.2-0.44,0.44-0.44c0.25,0,0.44,0.2,0.44,0.44v2.86
			C6.52,46.21,6.32,46.41,6.08,46.41z"/>
	</g>
	<g>
		<path class="st2" d="M7.54,45.01H4.68c-0.25,0-0.44-0.2-0.44-0.44c0-0.25,0.2-0.44,0.44-0.44h2.86c0.25,0,0.44,0.2,0.44,0.44
			C7.98,44.81,7.79,45.01,7.54,45.01z"/>
	</g>
</g>
<g>
	<g>
		<path class="st2" d="M3.79,87.63c-0.25,0-0.44-0.2-0.44-0.44v-2.86c0-0.25,0.2-0.44,0.44-0.44c0.25,0,0.44,0.2,0.44,0.44v2.86
			C4.24,87.43,4.04,87.63,3.79,87.63z"/>
	</g>
	<g>
		<path class="st2" d="M5.25,86.23H2.39c-0.25,0-0.44-0.2-0.44-0.44c0-0.25,0.2-0.44,0.44-0.44h2.86c0.25,0,0.44,0.2,0.44,0.44
			C5.7,86.03,5.5,86.23,5.25,86.23z"/>
	</g>
</g>
<g>
	<path class="st2" d="M95.92,15.42c-0.01-0.35,0.27-0.64,0.62-0.65l0,0c0.35-0.01,0.64,0.27,0.65,0.62l0,0
		c0.01,0.35-0.27,0.64-0.62,0.65l0,0c-0.01,0-0.01,0-0.02,0l0,0C96.21,16.04,95.93,15.77,95.92,15.42z M94.04,15.06
		c-0.25-0.24-0.26-0.65-0.02-0.9l0,0c0.24-0.25,0.65-0.26,0.9-0.02l0,0c0.25,0.24,0.26,0.65,0.02,0.9l0,0
		c-0.13,0.13-0.29,0.19-0.46,0.19l0,0C94.32,15.23,94.16,15.17,94.04,15.06z M98.15,14.96c-0.26-0.24-0.27-0.64-0.03-0.9l0,0
		c0.24-0.26,0.64-0.27,0.9-0.03l0,0c0.26,0.24,0.27,0.64,0.03,0.9l0,0c-0.13,0.13-0.29,0.2-0.46,0.2l0,0
		C98.43,15.13,98.27,15.07,98.15,14.96z M92.96,12.56c0-0.35,0.28-0.64,0.63-0.64l0,0c0.35,0,0.64,0.28,0.64,0.63l0,0
		c0,0.35-0.28,0.64-0.63,0.64l0,0c0,0-0.01,0-0.01,0l0,0C93.24,13.19,92.96,12.91,92.96,12.56z M98.73,12.43
		c-0.01-0.35,0.26-0.65,0.61-0.66l0,0c0.35-0.01,0.64,0.26,0.66,0.61l0,0c0.01,0.35-0.26,0.65-0.61,0.66l0,0c-0.01,0-0.02,0-0.02,0
		l0,0C99.02,13.05,98.74,12.78,98.73,12.43z M93.98,10.94c-0.25-0.25-0.25-0.65-0.01-0.9l0,0c0.25-0.25,0.65-0.25,0.9-0.01l0,0
		c0.25,0.25,0.25,0.65,0.01,0.9l0,0c-0.12,0.13-0.29,0.19-0.45,0.19l0,0C94.26,11.13,94.1,11.06,93.98,10.94z M98,10.86
		c-0.26-0.24-0.28-0.64-0.04-0.9l0,0c0.24-0.26,0.64-0.28,0.9-0.04l0,0c0.26,0.24,0.28,0.64,0.04,0.9l0,0
		c-0.13,0.14-0.3,0.21-0.47,0.21l0,0C98.28,11.03,98.12,10.97,98,10.86z M95.84,9.63c0-0.35,0.28-0.64,0.64-0.64l0,0
		c0.35,0,0.64,0.28,0.64,0.64l0,0c0,0.35-0.28,0.64-0.64,0.64l0,0C96.13,10.27,95.84,9.98,95.84,9.63z"/>
</g>
<g>
	<path class="st2" d="M41.06,40.42c-0.01-0.35,0.27-0.64,0.62-0.65l0,0c0.35-0.01,0.64,0.27,0.65,0.62l0,0
		c0.01,0.35-0.27,0.64-0.62,0.65l0,0c-0.01,0-0.01,0-0.02,0l0,0C41.35,41.04,41.07,40.76,41.06,40.42z M39.18,40.05
		c-0.25-0.24-0.26-0.65-0.02-0.9l0,0c0.24-0.25,0.65-0.26,0.9-0.02l0,0l0,0l0,0c0.25,0.24,0.26,0.65,0.02,0.9l0,0
		c-0.13,0.13-0.29,0.19-0.46,0.19l0,0C39.46,40.23,39.3,40.17,39.18,40.05z M43.29,39.95c-0.26-0.24-0.27-0.64-0.03-0.9l0,0
		c0.24-0.26,0.64-0.27,0.9-0.03l0,0c0.26,0.24,0.27,0.64,0.03,0.9l0,0c-0.13,0.13-0.29,0.2-0.46,0.2l0,0
		C43.57,40.13,43.42,40.07,43.29,39.95z M38.1,37.56c0-0.35,0.28-0.64,0.63-0.64l0,0c0.35,0,0.64,0.28,0.64,0.63l0,0
		c0,0.35-0.28,0.64-0.63,0.64l0,0c0,0-0.01,0-0.01,0l0,0C38.39,38.19,38.11,37.91,38.1,37.56z M43.87,37.43
		c-0.01-0.35,0.26-0.65,0.61-0.66l0,0c0.35-0.01,0.65,0.26,0.66,0.61l0,0c0.01,0.35-0.26,0.65-0.61,0.66l0,0c-0.01,0-0.02,0-0.02,0
		l0,0C44.17,38.04,43.89,37.77,43.87,37.43z M39.12,35.94c-0.25-0.25-0.25-0.65-0.01-0.9l0,0c0.25-0.25,0.65-0.25,0.9-0.01l0,0
		c0.25,0.25,0.25,0.65,0.01,0.9l0,0c-0.12,0.13-0.29,0.19-0.45,0.19l0,0C39.41,36.12,39.25,36.06,39.12,35.94z M43.15,35.85
		c-0.26-0.24-0.28-0.64-0.04-0.9l0,0c0.24-0.26,0.64-0.28,0.9-0.04l0,0c0.26,0.24,0.28,0.64,0.04,0.9l0,0
		c-0.13,0.14-0.3,0.21-0.47,0.21l0,0C43.42,36.02,43.27,35.96,43.15,35.85z M40.99,34.63c0-0.35,0.28-0.64,0.64-0.64l0,0
		c0.35,0,0.64,0.28,0.64,0.64l0,0c0,0.35-0.28,0.64-0.64,0.64l0,0l0,0l0,0C41.27,35.26,40.99,34.98,40.99,34.63z"/>
</g>
<g>
	<path class="st2" d="M7.87,63.9c-0.01-0.35,0.27-0.64,0.62-0.65l0,0c0.35-0.01,0.64,0.27,0.65,0.62l0,0
		c0.01,0.35-0.27,0.64-0.62,0.65l0,0c-0.01,0-0.01,0-0.02,0l0,0C8.17,64.52,7.88,64.25,7.87,63.9z M5.99,63.54L5.99,63.54
		c-0.25-0.24-0.26-0.65-0.02-0.9l0,0c0.24-0.25,0.65-0.26,0.9-0.02l0,0c0.25,0.24,0.26,0.65,0.02,0.9l0,0
		c-0.12,0.13-0.29,0.19-0.46,0.19l0,0C6.28,63.71,6.12,63.66,5.99,63.54z M10.11,63.44c-0.26-0.24-0.27-0.64-0.03-0.9l0,0
		c0.24-0.26,0.64-0.27,0.9-0.03l0,0c0.26,0.24,0.27,0.64,0.03,0.9l0,0c-0.12,0.13-0.29,0.2-0.46,0.2l0,0
		C10.39,63.61,10.23,63.55,10.11,63.44z M4.91,61.04c0-0.35,0.28-0.64,0.63-0.64l0,0c0.35,0,0.64,0.28,0.64,0.63l0,0
		c0,0.35-0.28,0.64-0.63,0.64l0,0c0,0-0.01,0-0.01,0l0,0C5.2,61.67,4.92,61.39,4.91,61.04z M10.69,60.91
		c-0.01-0.35,0.26-0.65,0.61-0.66l0,0c0.35-0.01,0.65,0.26,0.66,0.61l0,0c0.01,0.35-0.26,0.65-0.61,0.66l0,0c-0.01,0-0.02,0-0.02,0
		l0,0C10.98,61.53,10.7,61.26,10.69,60.91z M5.94,59.42c-0.25-0.25-0.25-0.65-0.01-0.9l0,0c0.25-0.25,0.65-0.25,0.9-0.01l0,0
		c0.25,0.25,0.25,0.65,0.01,0.9l0,0c-0.12,0.13-0.29,0.19-0.45,0.19l0,0C6.22,59.61,6.06,59.55,5.94,59.42z M9.96,59.34
		c-0.26-0.24-0.28-0.64-0.04-0.9l0,0c0.24-0.26,0.64-0.28,0.9-0.04l0,0c0.26,0.24,0.28,0.64,0.04,0.9l0,0
		c-0.13,0.14-0.3,0.21-0.47,0.21l0,0C10.23,59.51,10.08,59.45,9.96,59.34z M7.8,58.11c0-0.35,0.28-0.64,0.64-0.64l0,0
		c0.35,0,0.64,0.28,0.64,0.64l0,0c0,0.35-0.28,0.64-0.64,0.64l0,0C8.09,58.75,7.8,58.46,7.8,58.11z"/>
</g>
<g>
	<path class="st2" d="M93.7,78.89c-0.01-0.35,0.27-0.64,0.62-0.65l0,0c0.35-0.01,0.64,0.27,0.65,0.62l0,0
		c0.01,0.35-0.27,0.64-0.62,0.65l0,0c-0.01,0-0.01,0-0.02,0l0,0C93.99,79.5,93.71,79.23,93.7,78.89z M91.82,78.52
		c-0.25-0.24-0.26-0.65-0.02-0.9l0,0c0.24-0.25,0.65-0.26,0.9-0.02l0,0c0.25,0.24,0.26,0.65,0.02,0.9l0,0
		c-0.12,0.13-0.29,0.19-0.46,0.19l0,0C92.1,78.7,91.94,78.64,91.82,78.52z M95.93,78.42c-0.26-0.24-0.27-0.64-0.03-0.9l0,0
		c0.24-0.26,0.64-0.27,0.9-0.03l0,0c0.26,0.24,0.27,0.64,0.03,0.9l0,0c-0.13,0.13-0.29,0.2-0.46,0.2l0,0
		C96.21,78.6,96.05,78.54,95.93,78.42z M90.74,76.03c0-0.35,0.28-0.64,0.63-0.64l0,0c0.35,0,0.64,0.28,0.64,0.63l0,0
		c0,0.35-0.28,0.64-0.63,0.64l0,0c0,0-0.01,0-0.01,0l0,0C91.03,76.65,90.74,76.38,90.74,76.03z M96.51,75.9
		c-0.01-0.35,0.26-0.65,0.61-0.66l0,0c0.35-0.01,0.65,0.26,0.66,0.61l0,0c0.01,0.35-0.26,0.65-0.61,0.66l0,0c-0.01,0-0.02,0-0.02,0
		l0,0C96.81,76.51,96.53,76.24,96.51,75.9z M91.76,74.41c-0.25-0.25-0.25-0.65-0.01-0.9l0,0c0.25-0.25,0.65-0.25,0.9-0.01l0,0
		c0.25,0.25,0.25,0.65,0.01,0.9l0,0c-0.12,0.13-0.29,0.19-0.45,0.19l0,0C92.05,74.59,91.88,74.53,91.76,74.41z M95.78,74.32
		L95.78,74.32L95.78,74.32c-0.26-0.24-0.28-0.64-0.04-0.9l0,0c0.24-0.26,0.64-0.28,0.9-0.04l0,0c0.26,0.24,0.28,0.64,0.04,0.9l0,0
		c-0.13,0.14-0.3,0.21-0.47,0.21l0,0C96.06,74.49,95.9,74.43,95.78,74.32z M93.63,73.1c0-0.35,0.28-0.64,0.64-0.64l0,0
		c0.35,0,0.63,0.28,0.63,0.64l0,0c0,0.35-0.28,0.64-0.63,0.64l0,0C93.91,73.73,93.63,73.45,93.63,73.1z"/>
</g>
<g>
	<g>
		<g>
			<g>
				<path class="st2" d="M83.85,90.35H16.59c-1.72,0-3.12-1.4-3.12-3.12v-1.3c0-0.23,0.18-0.41,0.41-0.41h72.67
					c0.23,0,0.41,0.18,0.41,0.41v1.3C86.96,88.95,85.56,90.35,83.85,90.35z M14.3,86.35v0.89c0,1.26,1.03,2.29,2.29,2.29h67.26
					c1.26,0,2.29-1.03,2.29-2.29v-0.89H14.3z"/>
			</g>
			<g>
				<path class="st2" d="M55.34,88.39H45.11c-0.23,0-0.41-0.18-0.41-0.41v-2c0-0.23,0.18-0.41,0.41-0.41c0.23,0,0.41,0.18,0.41,0.41
					v1.59h9.4v-1.59c0-0.23,0.18-0.41,0.41-0.41c0.23,0,0.41,0.18,0.41,0.41v2C55.75,88.21,55.57,88.39,55.34,88.39z"/>
			</g>
			<g>
				<path class="st2" d="M81.57,85.82c-0.23,0-0.41-0.18-0.41-0.41V50.93c0-1.37-1.13-2.49-2.51-2.49h-1.43
					c-0.23,0-0.41-0.18-0.41-0.41s0.18-0.41,0.41-0.41h1.43c1.84,0,3.33,1.49,3.33,3.31v34.48C81.98,85.64,81.8,85.82,81.57,85.82z"
					/>
			</g>
			<g>
				<path class="st2" d="M18.81,74.39c-0.23,0-0.41-0.18-0.41-0.41V50.93c0-1.83,1.5-3.31,3.34-3.31h49.95
					c0.23,0,0.41,0.18,0.41,0.41s-0.18,0.41-0.41,0.41H21.75c-1.39,0-2.52,1.12-2.52,2.49v23.05C19.23,74.2,19.04,74.39,18.81,74.39
					z"/>
			</g>
			<g>
				<path class="st2" d="M18.81,86.14c-0.23,0-0.41-0.18-0.41-0.41v-6.1c0-0.23,0.18-0.41,0.41-0.41c0.23,0,0.41,0.18,0.41,0.41v6.1
					C19.23,85.95,19.04,86.14,18.81,86.14z"/>
			</g>
			<g>
				<path class="st2" d="M22.94,70.19c-0.23,0-0.41-0.18-0.41-0.41V52.15c0-0.23,0.18-0.41,0.41-0.41h44.62
					c0.23,0,0.41,0.18,0.41,0.41s-0.18,0.41-0.41,0.41H23.36v17.21C23.36,70.01,23.17,70.19,22.94,70.19z"/>
			</g>
			<g>
				<path class="st2" d="M22.94,83.12c-0.11,0-0.21-0.05-0.29-0.13c-0.08-0.08-0.12-0.19-0.12-0.3v-7.26c0-0.23,0.18-0.41,0.41-0.41
					c0.23,0,0.41,0.18,0.41,0.41v6.85l53.74-0.03V52.57h-3.81c-0.23,0-0.41-0.18-0.41-0.41s0.18-0.41,0.41-0.41h4.22
					c0.23,0,0.41,0.18,0.41,0.41v30.51c0,0.23-0.18,0.42-0.41,0.42L22.94,83.12C22.94,83.12,22.94,83.12,22.94,83.12z"/>
			</g>
		</g>
	</g>
	<g>
		<path class="st2" d="M16.38,82.27c-0.11,0-0.21-0.04-0.29-0.12l-2.65-2.65c-0.08-0.08-0.12-0.18-0.12-0.29
			c0-0.11,0.04-0.21,0.12-0.29l21.34-21.34c0.16-0.16,0.42-0.16,0.58,0l13.48,13.48l28.49-29.17l-2.19-2.13
			c-0.11-0.11-0.15-0.26-0.11-0.41c0.04-0.15,0.16-0.26,0.31-0.29l9.41-1.94c0.14-0.03,0.28,0.01,0.38,0.11
			c0.1,0.1,0.14,0.24,0.11,0.38l-1.94,9.41c-0.03,0.15-0.14,0.27-0.29,0.31c-0.15,0.04-0.3,0-0.41-0.1l-2.05-2.05L49.14,77.23
			c-0.08,0.08-0.18,0.12-0.29,0.12c-0.11,0-0.22-0.04-0.29-0.12L35.07,63.75l-18.4,18.4C16.59,82.23,16.48,82.27,16.38,82.27z
			 M14.31,79.21l2.07,2.07l18.4-18.4c0.16-0.16,0.42-0.16,0.58,0l13.48,13.48l31.41-32.06c0.08-0.08,0.18-0.12,0.29-0.12
			c0,0,0,0,0,0c0.11,0,0.21,0.04,0.29,0.12l1.8,1.8l1.66-8.05l-8.03,1.66l1.93,1.88c0.08,0.08,0.12,0.18,0.12,0.29
			c0,0.11-0.04,0.22-0.12,0.29L49.14,71.93c-0.08,0.08-0.18,0.12-0.29,0.12c0,0,0,0,0,0c-0.11,0-0.21-0.04-0.29-0.12L35.07,58.45
			L14.31,79.21z"/>
	</g>
	<g>
		<path class="st2" d="M26.06,82.98c-0.23,0-0.41-0.18-0.41-0.41V72.45c0-0.23,0.18-0.41,0.41-0.41c0.23,0,0.41,0.18,0.41,0.41
			v10.12C26.47,82.79,26.29,82.98,26.06,82.98z"/>
	</g>
	<g>
		<path class="st2" d="M29.39,82.98c-0.23,0-0.41-0.18-0.41-0.41V69.4c0-0.23,0.18-0.41,0.41-0.41c0.23,0,0.41,0.18,0.41,0.41v13.17
			C29.8,82.79,29.62,82.98,29.39,82.98z"/>
	</g>
	<g>
		<path class="st2" d="M32.49,82.98c-0.23,0-0.41-0.18-0.41-0.41V65.91c0-0.23,0.18-0.41,0.41-0.41c0.23,0,0.41,0.18,0.41,0.41
			v16.65C32.9,82.79,32.72,82.98,32.49,82.98z"/>
	</g>
	<g>
		<path class="st2" d="M35.82,82.98c-0.23,0-0.41-0.18-0.41-0.41V64.2c0-0.23,0.18-0.41,0.41-0.41c0.23,0,0.41,0.18,0.41,0.41v18.37
			C36.24,82.79,36.05,82.98,35.82,82.98z"/>
	</g>
	<g>
		<path class="st2" d="M38.92,82.98c-0.23,0-0.41-0.18-0.41-0.41V67.36c0-0.23,0.18-0.41,0.41-0.41s0.41,0.18,0.41,0.41v15.21
			C39.34,82.79,39.15,82.98,38.92,82.98z"/>
	</g>
	<g>
		<path class="st2" d="M42.26,82.98c-0.23,0-0.41-0.18-0.41-0.41V70.68c0-0.23,0.18-0.41,0.41-0.41c0.23,0,0.41,0.18,0.41,0.41
			v11.89C42.67,82.79,42.49,82.98,42.26,82.98z"/>
	</g>
	<g>
		<path class="st2" d="M45.36,82.98c-0.23,0-0.41-0.18-0.41-0.41v-8.85c0-0.23,0.18-0.41,0.41-0.41s0.41,0.18,0.41,0.41v8.85
			C45.77,82.79,45.58,82.98,45.36,82.98z"/>
	</g>
	<g>
		<path class="st2" d="M48.69,82.98c-0.23,0-0.41-0.18-0.41-0.41v-5.5c0-0.23,0.18-0.41,0.41-0.41c0.23,0,0.41,0.18,0.41,0.41v5.5
			C49.1,82.79,48.92,82.98,48.69,82.98z"/>
	</g>
	<g>
		<path class="st2" d="M51.79,82.98c-0.23,0-0.41-0.18-0.41-0.41v-8.39c0-0.23,0.18-0.41,0.41-0.41c0.23,0,0.41,0.18,0.41,0.41v8.39
			C52.2,82.79,52.02,82.98,51.79,82.98z"/>
	</g>
	<g>
		<path class="st2" d="M55.12,82.98c-0.23,0-0.41-0.18-0.41-0.41V70.68c0-0.23,0.18-0.41,0.41-0.41s0.41,0.18,0.41,0.41v11.89
			C55.54,82.79,55.35,82.98,55.12,82.98z"/>
	</g>
	<g>
		<path class="st2" d="M58.22,82.98c-0.23,0-0.41-0.18-0.41-0.41V67.58c0-0.23,0.18-0.41,0.41-0.41c0.23,0,0.41,0.18,0.41,0.41
			v14.99C58.64,82.79,58.45,82.98,58.22,82.98z"/>
	</g>
	<g>
		<path class="st2" d="M61.56,82.98c-0.23,0-0.41-0.18-0.41-0.41V64.2c0-0.23,0.18-0.41,0.41-0.41c0.23,0,0.41,0.18,0.41,0.41v18.37
			C61.97,82.79,61.78,82.98,61.56,82.98z"/>
	</g>
	<g>
		<path class="st2" d="M67.99,82.98c-0.23,0-0.41-0.18-0.41-0.41V66.71h-2.51v15.86c0,0.23-0.18,0.41-0.41,0.41
			c-0.23,0-0.41-0.18-0.41-0.41V66.3c0-0.23,0.18-0.41,0.41-0.41h3.33c0.23,0,0.41,0.18,0.41,0.41v16.27
			C68.4,82.79,68.22,82.98,67.99,82.98z"/>
	</g>
	<g>
		<path class="st2" d="M74.42,82.98c-0.23,0-0.41-0.18-0.41-0.41V61.38H71.5v21.19c0,0.23-0.18,0.41-0.41,0.41
			c-0.23,0-0.41-0.18-0.41-0.41v-21.6c0-0.23,0.18-0.41,0.41-0.41h3.33c0.23,0,0.41,0.18,0.41,0.41v21.6
			C74.84,82.79,74.65,82.98,74.42,82.98z"/>
	</g>
</g>
<g>
	<g>
		<path class="st2" d="M11.89,32.43h-0.01C5.33,32.43,0,27.1,0,20.54C0,13.98,5.33,8.65,11.88,8.65s11.88,5.33,11.88,11.87
			c0,0.11-0.04,0.21-0.12,0.29c-0.08,0.08-0.18,0.12-0.29,0.12c0,0,0,0,0,0l-11.04,0v11.08C12.3,32.25,12.12,32.43,11.89,32.43z
			 M11.88,9.48c-6.09,0-11.05,4.96-11.05,11.06c0,5.97,4.74,10.85,10.65,11.06V20.52c0-0.11,0.04-0.21,0.12-0.29
			c0.08-0.08,0.18-0.12,0.29-0.12c0,0,0,0,0,0l11.03,0C22.7,14.21,17.83,9.48,11.88,9.48z"/>
	</g>
	<g>
		<path class="st2" d="M4.8,17.13c-0.07,0-0.13-0.02-0.2-0.05c-0.2-0.11-0.28-0.36-0.17-0.56c1.47-2.73,4.3-4.42,7.39-4.42
			c2.24,0,4.35,0.87,5.93,2.46c0.16,0.16,0.16,0.42,0,0.58c-0.16,0.16-0.42,0.16-0.58,0c-1.42-1.43-3.32-2.22-5.34-2.22
			c-2.78,0-5.34,1.53-6.67,3.99C5.09,17.05,4.94,17.13,4.8,17.13z"/>
	</g>
	<g>
		<path class="st2" d="M8.44,28.18c-0.06,0-0.12-0.01-0.18-0.04c-2.93-1.39-4.83-4.38-4.83-7.63c0-0.23,0.18-0.41,0.41-0.41
			c0.23,0,0.41,0.18,0.41,0.41c0,2.93,1.71,5.63,4.36,6.89c0.21,0.1,0.29,0.34,0.2,0.55C8.74,28.09,8.59,28.18,8.44,28.18z"/>
	</g>
	<g>
		<path class="st2" d="M15.69,36.21l-0.05,0c-0.23,0-0.41-0.19-0.41-0.41V24.33c0-0.23,0.18-0.41,0.41-0.41h11.4
			c0.16,0,0.3,0.09,0.37,0.24c0.03,0.06,0.05,0.11,0.08,0.17l0.03,0.07c0.03,0.06,0.04,0.12,0.04,0.18
			c-0.06,3.12-1.33,6.04-3.56,8.23C21.77,35,18.82,36.21,15.69,36.21z M16.05,24.75v10.63c5.75-0.19,10.47-4.87,10.68-10.63H16.05z"
			/>
	</g>
</g>
<g>
	<g>
		<path class="st2" d="M61.85,12.93H35.81c-0.23,0-0.41-0.18-0.41-0.41s0.18-0.41,0.41-0.41h26.04c0.23,0,0.41,0.18,0.41,0.41
			S62.08,12.93,61.85,12.93z"/>
	</g>
	<g>
		<path class="st2" d="M61.85,17.31H35.81c-0.23,0-0.41-0.18-0.41-0.41s0.18-0.41,0.41-0.41h26.04c0.23,0,0.41,0.18,0.41,0.41
			S62.08,17.31,61.85,17.31z"/>
	</g>
	<g>
		<path class="st2" d="M61.85,21.63H35.81c-0.23,0-0.41-0.18-0.41-0.41c0-0.23,0.18-0.41,0.41-0.41h26.04
			c0.23,0,0.41,0.18,0.41,0.41C62.26,21.45,62.08,21.63,61.85,21.63z"/>
	</g>
	<g>
		<path class="st2" d="M49.59,26.02H35.81c-0.23,0-0.41-0.18-0.41-0.41s0.18-0.41,0.41-0.41h13.78c0.23,0,0.41,0.18,0.41,0.41
			S49.82,26.02,49.59,26.02z"/>
	</g>
</g>
</svg>
